<?xml version="1.0" encoding="UTF-8"?>
<svg xmlns="http://www.w3.org/2000/svg" xmlns:xlink="http://www.w3.org/1999/xlink" width="309.36" height="103.92" viewBox="227.40 350.76 309.36 103.92" version="1.2">
<g id="surface1">













































































































































































































































<path style=" stroke:none;fill-rule:nonzero;fill:rgb(8.657837%,17.835999%,40.106201%);fill-opacity:1;" d="M 230.265625 354.0625 L 245.027344 354.0625 L 245.027344 372.386719 L 263.796875 372.386719 L 263.796875 354.0625 L 278.558594 354.0625 L 278.558594 403.347656 L 263.796875 403.347656 L 263.796875 382.953125 L 245.027344 382.953125 L 245.027344 403.347656 L 230.265625 403.347656 L 230.265625 354.0625 "/>
<path style=" stroke:none;fill-rule:nonzero;fill:rgb(8.657837%,17.835999%,40.106201%);fill-opacity:1;" d="M 342.195312 354.0625 L 356.960938 354.0625 L 356.960938 392.78125 L 378.613281 392.78125 L 378.613281 403.347656 L 342.195312 403.347656 L 342.195312 354.0625 "/>
<path style=" stroke:none;fill-rule:nonzero;fill:rgb(8.657837%,17.835999%,40.106201%);fill-opacity:1;" d="M 386.324219 354.0625 L 401.085938 354.0625 L 401.085938 392.78125 L 422.734375 392.78125 L 422.734375 403.347656 L 386.324219 403.347656 L 386.324219 354.0625 "/>
<path style=" stroke:none;fill-rule:nonzero;fill:rgb(8.657837%,17.835999%,40.106201%);fill-opacity:1;" d="M 434.914062 383.398438 L 418.039062 354.0625 L 434.277344 354.0625 L 442.648438 371.722656 L 451.714844 354.0625 L 467.742188 354.0625 L 449.675781 384.433594 L 449.675781 403.347656 L 434.914062 403.347656 L 434.914062 383.398438 "/>
<path style=" stroke:none;fill-rule:nonzero;fill:rgb(8.657837%,17.835999%,40.106201%);fill-opacity:1;" d="M 494.339844 354.0625 L 502.351562 385.023438 L 502.488281 385.023438 L 510.925781 354.0625 L 530.261719 354.0625 L 530.261719 403.347656 L 518.027344 403.347656 L 518.027344 368.027344 L 517.890625 368.027344 L 508.1875 403.347656 L 495.605469 403.347656 L 486.183594 368.101562 L 486.042969 368.101562 L 486.042969 403.347656 L 474.792969 403.347656 L 474.792969 354.0625 L 494.339844 354.0625 "/>
<path style=" stroke:none;fill-rule:nonzero;fill:rgb(8.657837%,17.835999%,40.106201%);fill-opacity:1;" d="M 258.703125 418.769531 L 258.703125 440.046875 C 258.703125 446.109375 256.191406 452.164062 244.515625 452.164062 C 232.792969 452.164062 230.28125 446.109375 230.28125 440.046875 L 230.28125 418.769531 L 234.808594 418.769531 L 234.808594 439.3125 C 234.808594 444.726562 236.734375 448.867188 244.464844 448.816406 L 244.515625 448.867188 C 252.25 448.867188 254.171875 444.726562 254.171875 439.3125 L 254.171875 418.769531 L 258.703125 418.769531 "/>
<path style=" stroke:none;fill-rule:nonzero;fill:rgb(8.657837%,17.835999%,40.106201%);fill-opacity:1;" d="M 272.210938 418.769531 L 277.875 418.769531 L 297.285156 446.550781 L 297.378906 446.648438 L 297.378906 418.769531 L 301.574219 418.769531 L 301.574219 451.628906 L 295.804688 451.628906 L 276.496094 424.1875 L 276.398438 424.089844 L 276.398438 451.628906 L 272.210938 451.628906 L 272.210938 418.769531 "/>
<path style=" stroke:none;fill-rule:nonzero;fill:rgb(8.657837%,17.835999%,40.106201%);fill-opacity:1;" d="M 314.570312 418.769531 L 319.105469 418.769531 L 319.105469 451.628906 L 314.570312 451.628906 L 314.570312 418.769531 "/>
<path style=" stroke:none;fill-rule:nonzero;fill:rgb(8.657837%,17.835999%,40.106201%);fill-opacity:1;" d="M 328.132812 418.769531 L 332.855469 418.769531 L 343.042969 448.03125 L 353.316406 418.769531 L 357.859375 418.769531 L 345.886719 451.628906 L 340.132812 451.628906 L 328.132812 418.769531 "/>
<path style=" stroke:none;fill-rule:nonzero;fill:rgb(8.657837%,17.835999%,40.106201%);fill-opacity:1;" d="M 366.417969 418.769531 L 387.648438 418.769531 L 387.648438 422.070312 L 370.949219 422.070312 L 370.949219 433.25 L 385.925781 433.25 L 385.925781 436.550781 L 370.949219 436.550781 L 370.949219 448.328125 L 387.648438 448.328125 L 387.648438 451.628906 L 366.417969 451.628906 L 366.417969 418.769531 "/>
<path style=" stroke:none;fill-rule:nonzero;fill:rgb(8.657837%,17.835999%,40.106201%);fill-opacity:1;" d="M 400.367188 418.769531 L 412.976562 418.769531 C 418.394531 418.769531 422.582031 420.984375 422.582031 427.09375 C 422.582031 434.875 415.050781 436.058594 412.582031 436.058594 L 423.175781 451.628906 L 417.855469 451.628906 L 406.917969 433.597656 C 407.90625 433.84375 408.988281 433.992188 410.070312 433.992188 C 414.355469 433.992188 418.054688 431.921875 418.054688 427.785156 C 418.054688 422.609375 414.554688 422.070312 412.484375 422.070312 L 404.898438 422.070312 L 404.898438 451.628906 L 400.367188 451.628906 L 400.367188 418.769531 "/>
<path style=" stroke:none;fill-rule:nonzero;fill:rgb(8.657837%,17.835999%,40.106201%);fill-opacity:1;" d="M 432.964844 446.699219 C 435.527344 447.878906 438.53125 448.867188 441.339844 448.867188 C 444.390625 448.867188 447.9375 447.785156 447.9375 444.433594 C 447.9375 437.832031 433.410156 434.386719 433.410156 425.714844 C 433.410156 420.394531 438.234375 418.226562 443.308594 418.226562 C 445.621094 418.226562 447.9375 418.574219 450.203125 418.964844 L 450.699219 422.859375 C 448.480469 422.070312 446.261719 421.527344 443.949219 421.527344 C 439.121094 421.527344 437.9375 424.039062 437.9375 426.011719 C 437.9375 432.414062 452.472656 435.960938 452.472656 444.335938 C 452.472656 450.097656 447.148438 452.164062 441.976562 452.164062 C 439.070312 452.164062 436.265625 451.527344 433.457031 450.789062 L 432.964844 446.699219 "/>
<path style=" stroke:none;fill-rule:nonzero;fill:rgb(8.657837%,17.835999%,40.106201%);fill-opacity:1;" d="M 464.214844 418.769531 L 468.75 418.769531 L 468.75 451.628906 L 464.214844 451.628906 L 464.214844 418.769531 "/>
<path style=" stroke:none;fill-rule:nonzero;fill:rgb(8.657837%,17.835999%,40.106201%);fill-opacity:1;" d="M 491.640625 451.628906 L 487.109375 451.628906 L 487.109375 422.070312 L 476.914062 422.070312 L 476.914062 418.769531 L 501.835938 418.769531 L 501.835938 422.070312 L 491.640625 422.070312 L 491.640625 451.628906 "/>
<path style=" stroke:none;fill-rule:nonzero;fill:rgb(8.657837%,17.835999%,40.106201%);fill-opacity:1;" d="M 517.699219 436.996094 L 506.617188 418.769531 L 511.636719 418.769531 L 520.210938 433.644531 L 529.078125 418.769531 L 534.101562 418.769531 L 522.230469 437.539062 L 522.230469 451.628906 L 517.699219 451.628906 L 517.699219 436.996094 "/>
<path style=" stroke:none;fill-rule:nonzero;fill:rgb(8.657837%,17.835999%,40.106201%);fill-opacity:1;" d="M 310.367188 364.609375 L 310.507812 364.609375 L 321.460938 403.253906 L 337.707031 403.253906 L 319.292969 353.96875 L 301.578125 353.96875 L 283.050781 403.253906 L 299.21875 403.253906 L 310.367188 364.609375 "/>
















</g>
</svg>
