<?xml version="1.0" encoding="UTF-8"?>
<svg xmlns="http://www.w3.org/2000/svg" xmlns:xlink="http://www.w3.org/1999/xlink" width="139.92" height="89.52" viewBox="306.12 690.12 139.92 89.52" version="1.2">
<g id="surface1">



































































































































































































































































































































<path style=" stroke:none;fill-rule:nonzero;fill:rgb(20.001221%,72.987366%,67.028809%);fill-opacity:1;" d="M 337.144531 716.3125 C 341.480469 716.734375 341.101562 718.050781 344.179688 721.121094 C 348.285156 725.210938 352.308594 725.433594 355.164062 723.179688 C 353.4375 722.644531 351.449219 721.222656 350.339844 720.171875 C 347.234375 717.253906 346.367188 713.386719 337.191406 716.03125 C 336.785156 716.152344 336.882812 716.285156 337.144531 716.3125 "/>
<path style=" stroke:none;fill-rule:nonzero;fill:rgb(20.001221%,72.987366%,67.028809%);fill-opacity:1;" d="M 431.039062 710.179688 C 417.054688 703.9375 402.765625 707.460938 391.273438 717.738281 C 380.085938 727.738281 372.425781 739.519531 357.402344 739.777344 C 368.910156 743.769531 391.578125 742.265625 404.015625 729.835938 C 404.34375 729.484375 404.089844 729.527344 403.878906 729.644531 C 396.6875 734.003906 385.300781 736.148438 380.386719 734.542969 C 393.417969 726.113281 403.8125 711.367188 430.976562 710.738281 C 431.976562 710.625 431.933594 710.578125 431.039062 710.179688 "/>
<path style=" stroke:none;fill-rule:nonzero;fill:rgb(20.001221%,72.987366%,67.028809%);fill-opacity:1;" d="M 356.347656 733.121094 C 353.808594 733.15625 351.183594 731.730469 349.636719 730.691406 C 347.382812 729.183594 345.785156 726.996094 344.027344 725.273438 C 341.160156 722.453125 336.367188 720.359375 329.808594 722.988281 C 329.457031 723.132812 329.375 723.304688 329.730469 723.320312 C 335.757812 723.625 335.550781 724.359375 340.605469 729.96875 C 344.019531 733.753906 353.125 734.832031 356.347656 733.121094 "/>
<path style=" stroke:none;fill-rule:nonzero;fill:rgb(10.823059%,38.667297%,71.841431%);fill-opacity:1;" d="M 419.023438 703.070312 C 416.886719 701.796875 408.878906 697.695312 401.082031 698.503906 C 397.039062 698.921875 393.515625 700.003906 389.980469 702.53125 C 388.300781 703.609375 387.152344 704.417969 386.132812 705.171875 C 386.054688 705.234375 385.667969 705.527344 385.550781 705.613281 C 382.347656 707.984375 379.550781 709.160156 377.929688 709.699219 C 377.359375 709.871094 376.847656 710.011719 376.449219 710.113281 C 381.683594 703.414062 387.324219 697.003906 394.292969 694.285156 C 394.511719 694.199219 394.503906 693.921875 394.28125 693.863281 C 385.816406 691.742188 376.957031 692.933594 369.984375 703.660156 C 362.035156 715.871094 357.292969 730.429688 346.308594 725.164062 C 353.09375 731.625 361.472656 728.832031 368.671875 720.105469 C 369.6875 718.871094 370.707031 717.582031 371.726562 716.261719 L 372.921875 714.695312 C 376.355469 714.449219 378.886719 713.613281 380.320312 713.007812 L 377.960938 716.261719 C 370.078125 727.0625 359.511719 740.03125 343.824219 733.625 C 361.929688 745.675781 375.484375 728.339844 382.214844 722.007812 C 390.542969 714.1875 398.917969 704.164062 419.039062 703.613281 C 419.492188 703.601562 419.820312 703.542969 419.023438 703.070312 "/>





















<path style=" stroke:none;fill-rule:nonzero;fill:rgb(8.657837%,17.835999%,40.106201%);fill-opacity:1;" d="M 357.277344 763.554688 C 356.089844 761.910156 355.332031 760.171875 355.019531 758.347656 C 357.085938 758.347656 358.347656 758.347656 358.792969 758.347656 L 358.792969 755.496094 L 354.988281 755.496094 L 354.988281 751.183594 L 351.855469 751.183594 L 351.855469 755.496094 L 343.566406 755.496094 L 343.566406 751.183594 L 340.40625 751.183594 L 340.40625 755.496094 L 336.625 755.496094 L 336.625 758.347656 L 340.378906 758.347656 C 340.042969 760.152344 339.304688 762.042969 338.164062 764.015625 C 337.027344 765.988281 335.996094 767.480469 335.058594 768.492188 L 337.246094 770.824219 C 337.859375 770.027344 338.441406 769.167969 338.980469 768.25 C 339.519531 767.328125 339.996094 766.476562 340.40625 765.699219 L 340.40625 776.414062 L 342.019531 776.414062 C 342.828125 776.398438 343.488281 775.796875 343.566406 775.03125 L 343.566406 765.207031 C 344.183594 766.457031 344.875 767.550781 345.640625 768.480469 C 346.40625 769.410156 347.058594 770.136719 347.597656 770.664062 C 348.140625 770.101562 348.800781 769.332031 349.585938 768.355469 C 350.371094 767.382812 351.128906 766.195312 351.855469 764.804688 L 351.855469 776.414062 L 353.441406 776.414062 C 354.234375 776.398438 354.890625 775.820312 354.988281 775.074219 L 354.988281 764.964844 C 355.402344 765.761719 355.941406 766.613281 356.625 767.515625 C 357.304688 768.417969 357.925781 769.1875 358.484375 769.824219 L 360.585938 767.40625 C 359.578125 766.484375 358.476562 765.199219 357.277344 763.554688 Z M 350.421875 761.835938 C 349.6875 763.371094 348.765625 764.746094 347.667969 765.957031 C 346.679688 764.726562 345.832031 763.507812 345.132812 762.296875 C 344.433594 761.082031 343.957031 759.761719 343.691406 758.332031 L 351.78125 758.332031 C 351.613281 759.128906 351.15625 760.296875 350.421875 761.835938 "/>
<path style=" stroke:none;fill-rule:nonzero;fill:rgb(8.657837%,17.835999%,40.106201%);fill-opacity:1;" d="M 387.808594 773.992188 L 385.234375 776.515625 C 383.378906 775.390625 381.550781 773.683594 379.730469 771.386719 C 377.910156 769.089844 376.621094 766.792969 375.855469 764.496094 C 375.105469 766.792969 373.839844 769.085938 372.042969 771.375 C 370.253906 773.660156 368.386719 775.367188 366.449219 776.488281 L 363.929688 773.992188 C 366.375 772.746094 368.507812 770.796875 370.328125 768.148438 C 372.144531 765.5 373.25 762.851562 373.644531 760.210938 L 364.855469 760.210938 L 364.855469 757.332031 L 373.980469 757.332031 L 373.980469 751.148438 L 377.589844 751.148438 L 377.589844 757.332031 L 386.683594 757.332031 L 386.683594 760.210938 L 377.953125 760.210938 C 378.382812 762.851562 379.523438 765.488281 381.378906 768.117188 C 383.238281 770.75 385.382812 772.707031 387.808594 773.992188 "/>
<path style=" stroke:none;fill-rule:nonzero;fill:rgb(8.657837%,17.835999%,40.106201%);fill-opacity:1;" d="M 404.351562 769.492188 L 413.164062 769.492188 L 413.164062 771.660156 L 404.351562 771.660156 L 404.351562 773.539062 C 404.351562 774.605469 404.117188 775.410156 403.648438 775.964844 C 403.183594 776.515625 402.300781 776.792969 400.992188 776.792969 L 398.953125 776.792969 L 398.953125 774.324219 L 399.984375 774.324219 C 400.394531 774.324219 400.636719 774.226562 400.710938 774.039062 C 400.785156 773.847656 400.824219 773.644531 400.824219 773.425781 L 400.824219 771.660156 L 391.617188 771.660156 L 391.617188 769.492188 L 400.824219 769.492188 L 400.824219 768.652344 L 403.371094 766.945312 L 396.320312 766.945312 L 396.320312 764.734375 L 407.429688 764.734375 C 408.027344 764.734375 408.316406 765.222656 408.425781 765.558594 C 408.535156 765.890625 408.425781 766.328125 408.089844 766.578125 L 404.351562 769.035156 Z M 414.761719 766.132812 L 411.402344 766.132812 L 411.402344 763.480469 L 393.910156 763.480469 L 393.910156 766.132812 L 390.550781 766.132812 L 390.550781 761.175781 L 392.457031 761.175781 L 392.457031 751.4375 L 398.390625 751.4375 L 398.390625 753.199219 L 395.671875 753.199219 L 395.671875 754.9375 L 398.332031 754.9375 L 398.332031 756.539062 L 395.671875 756.539062 L 395.671875 758.054688 L 398.332031 758.054688 L 398.332031 759.601562 L 395.671875 759.601562 L 395.671875 761.175781 L 409.109375 761.175781 L 409.109375 759.601562 L 406.449219 759.601562 L 406.449219 758.03125 L 409.109375 758.03125 L 409.109375 756.457031 L 406.449219 756.457031 L 406.449219 754.773438 L 409.109375 754.773438 L 409.109375 753.199219 L 406.167969 753.199219 L 406.167969 751.4375 L 412.328125 751.4375 L 412.328125 761.175781 L 414.761719 761.175781 Z M 404.210938 758.382812 C 404.5625 758.601562 404.898438 758.808594 405.203125 759.007812 C 405.511719 759.207031 405.769531 759.378906 405.972656 759.523438 L 404.851562 761.015625 C 404.554688 760.816406 404.191406 760.578125 403.761719 760.308594 C 403.332031 760.039062 402.875 759.757812 402.390625 759.46875 C 401.925781 759.742188 401.480469 760.011719 401.058594 760.28125 C 400.640625 760.550781 400.273438 760.785156 399.957031 760.988281 L 398.839844 759.523438 C 399.042969 759.378906 399.292969 759.207031 399.59375 759.007812 C 399.890625 758.808594 400.214844 758.609375 400.570312 758.410156 C 400.273438 758.226562 399.996094 758.066406 399.730469 757.921875 C 399.46875 757.777344 399.238281 757.660156 399.035156 757.570312 L 400.265625 756.128906 C 400.46875 756.222656 400.761719 756.375 401.144531 756.589844 C 401.527344 756.808594 401.949219 757.054688 402.417969 757.324219 C 402.867188 757.070312 403.285156 756.835938 403.660156 756.617188 C 404.046875 756.402344 404.339844 756.246094 404.542969 756.15625 L 405.78125 757.542969 C 405.59375 757.632812 405.367188 757.75 405.09375 757.894531 C 404.820312 758.039062 404.527344 758.203125 404.210938 758.382812 Z M 404.210938 753.335938 C 404.5625 753.550781 404.898438 753.761719 405.203125 753.960938 C 405.511719 754.160156 405.769531 754.328125 405.972656 754.476562 L 404.851562 755.964844 C 404.554688 755.769531 404.191406 755.535156 403.761719 755.261719 C 403.332031 754.988281 402.875 754.710938 402.390625 754.421875 C 401.925781 754.691406 401.480469 754.964844 401.058594 755.238281 C 400.640625 755.507812 400.273438 755.742188 399.957031 755.941406 L 398.839844 754.503906 C 399.042969 754.359375 399.296875 754.1875 399.605469 753.988281 C 399.914062 753.789062 400.246094 753.582031 400.597656 753.363281 C 400.300781 753.183594 400.015625 753.019531 399.746094 752.875 C 399.476562 752.730469 399.238281 752.613281 399.035156 752.523438 L 400.265625 751.085938 C 400.46875 751.175781 400.769531 751.328125 401.160156 751.542969 C 401.550781 751.761719 401.972656 752.007812 402.417969 752.277344 C 402.867188 752.027344 403.285156 751.789062 403.660156 751.574219 C 404.046875 751.355469 404.339844 751.203125 404.542969 751.109375 L 405.78125 752.496094 C 405.59375 752.585938 405.367188 752.703125 405.09375 752.847656 C 404.820312 752.992188 404.527344 753.15625 404.210938 753.335938 "/>
<path style=" stroke:none;fill-rule:nonzero;fill:rgb(8.657837%,17.835999%,40.106201%);fill-opacity:1;" d="M 423.96875 776.382812 L 423.96875 776.375 C 424.84375 776.375 425.5625 775.683594 425.5625 774.832031 L 425.5625 764.28125 C 425.785156 764.898438 426.191406 765.582031 426.757812 766.402344 C 427.328125 767.21875 427.902344 767.789062 428.519531 768.421875 L 430.011719 766.042969 C 428.703125 764.757812 427.714844 763.488281 427.035156 762.234375 C 426.351562 760.976562 425.90625 759.667969 425.703125 758.3125 L 428.527344 758.3125 L 428.527344 756.300781 L 441.683594 756.300781 L 441.683594 753.804688 L 436.5625 753.804688 L 436.5625 751.148438 L 433.285156 751.148438 L 433.285156 753.804688 L 428.421875 753.804688 L 428.421875 755.652344 L 425.5625 755.652344 L 425.5625 751.175781 L 422.621094 751.175781 L 422.621094 755.652344 L 419.460938 755.652344 L 419.460938 758.3125 L 422.429688 758.3125 C 422.238281 759.902344 421.765625 761.621094 421.003906 763.464844 C 420.234375 765.3125 419.332031 766.8125 418.28125 767.96875 L 420.273438 770.441406 C 420.8125 769.734375 421.304688 768.914062 421.738281 767.984375 C 422.179688 767.050781 422.472656 766.332031 422.621094 765.824219 L 422.621094 776.382812 L 423.96875 776.382812 "/>
<path style=" stroke:none;fill-rule:nonzero;fill:rgb(8.657837%,17.835999%,40.106201%);fill-opacity:1;" d="M 436.226562 758.800781 L 441.238281 762.976562 L 442.828125 760.96875 L 437.847656 756.898438 L 436.226562 758.800781 "/>
<path style=" stroke:none;fill-rule:nonzero;fill:rgb(8.657837%,17.835999%,40.106201%);fill-opacity:1;" d="M 439.835938 771.851562 C 438.734375 770.910156 437.726562 769.871094 436.8125 768.730469 C 437.410156 767.789062 437.929688 766.847656 438.363281 765.90625 C 438.804688 764.964844 439.15625 764.054688 439.417969 763.167969 L 437.007812 761.132812 C 436.824219 761.964844 436.558594 762.796875 436.214844 763.628906 C 435.867188 764.460938 435.460938 765.273438 434.996094 766.070312 C 434.523438 765.273438 434.132812 764.460938 433.808594 763.628906 C 433.480469 762.796875 433.210938 761.964844 433.007812 761.132812 L 430.601562 763.167969 C 430.863281 764.070312 431.210938 764.996094 431.648438 765.933594 C 432.089844 766.875 432.605469 767.808594 433.203125 768.730469 C 432.289062 769.871094 431.28125 770.910156 430.183594 771.851562 C 429.082031 772.789062 427.929688 773.546875 426.738281 774.128906 L 428.695312 776.40625 C 429.984375 775.648438 431.15625 774.820312 432.207031 773.925781 C 433.265625 773.03125 434.207031 772.09375 435.023438 771.117188 C 435.84375 772.09375 436.777344 773.03125 437.820312 773.925781 C 438.867188 774.820312 440.035156 775.648438 441.320312 776.40625 L 443.277344 774.128906 C 442.082031 773.546875 440.9375 772.789062 439.835938 771.851562 "/>
<path style=" stroke:none;fill-rule:nonzero;fill:rgb(8.657837%,17.835999%,40.106201%);fill-opacity:1;" d="M 428.808594 762.976562 L 433.792969 758.800781 L 432.167969 756.898438 L 427.1875 760.96875 L 428.808594 762.976562 "/>
<path style=" stroke:none;fill-rule:nonzero;fill:rgb(8.657837%,17.835999%,40.106201%);fill-opacity:1;" d="M 328.789062 756.300781 C 327.363281 754.28125 326.59375 752.613281 326.480469 751.289062 L 323.378906 751.289062 C 323.304688 752.324219 322.839844 753.601562 321.988281 755.132812 C 321.128906 756.664062 320.160156 758.015625 319.070312 759.195312 C 319.070312 758.722656 319.070312 758.199219 319.070312 757.617188 L 315.882812 757.617188 L 315.882812 755.5 L 319.546875 755.5 L 319.546875 753.378906 L 315.882812 753.378906 L 315.882812 751.179688 L 312.839844 751.179688 L 312.839844 753.40625 L 309.09375 753.378906 L 309.09375 755.5 L 312.785156 755.5 L 312.785156 757.617188 L 309.601562 757.617188 L 309.601562 768.238281 L 312.785156 768.238281 L 312.785156 770.574219 L 308.894531 770.574219 L 308.894531 772.828125 L 312.839844 772.828125 L 312.839844 776.414062 L 314.332031 776.414062 C 315.144531 776.398438 315.800781 775.796875 315.882812 775.03125 L 315.882812 772.828125 L 319.3125 772.828125 C 319.3125 772.828125 319.75 772.632812 320.957031 771.582031 C 321.402344 771.191406 321.8125 770.8125 322.167969 770.410156 L 322.167969 773.289062 C 322.167969 773.632812 322.117188 773.890625 322.015625 774.066406 C 321.910156 774.238281 321.691406 774.324219 321.351562 774.324219 L 320.472656 774.324219 L 320.472656 776.414062 L 323.035156 776.414062 C 323.847656 776.398438 324.503906 775.796875 324.585938 775.03125 L 324.585938 774.140625 C 324.585938 774.121094 324.59375 774.101562 324.59375 774.078125 L 324.59375 771.335938 L 325.378906 772.394531 C 325.609375 772.230469 325.953125 771.960938 326.410156 771.582031 C 326.871094 771.199219 327.28125 770.8125 327.636719 770.410156 L 327.636719 773.289062 C 327.636719 773.632812 327.585938 773.890625 327.480469 774.066406 C 327.378906 774.238281 327.15625 774.324219 326.820312 774.324219 L 325.949219 774.324219 L 325.949219 776.414062 L 328.5 776.414062 C 329.3125 776.398438 329.972656 775.796875 330.054688 775.03125 L 330.054688 774.132812 C 330.054688 774.113281 330.058594 774.097656 330.058594 774.078125 L 330.058594 761.9375 C 330.210938 762.082031 330.363281 762.21875 330.527344 762.34375 C 330.683594 762.46875 330.832031 762.597656 330.964844 762.726562 L 333.019531 760.714844 C 331.628906 759.789062 330.222656 758.320312 328.789062 756.300781 Z M 319.070312 764.925781 C 319.070312 764.253906 319.070312 763.476562 319.070312 762.589844 L 319.046875 763.015625 C 319.199219 762.910156 319.589844 762.574219 319.730469 762.4375 C 319.875 762.304688 320.007812 762.171875 320.140625 762.046875 L 320.140625 762.996094 L 322.253906 762.996094 C 322.011719 763.433594 321.570312 763.929688 320.929688 764.492188 C 320.289062 765.050781 319.671875 765.542969 319.070312 765.957031 C 319.070312 765.9375 319.070312 765.59375 319.070312 764.925781 Z M 312.472656 759.738281 L 316.136719 759.738281 L 316.136719 761.910156 L 312.472656 761.910156 Z M 312.472656 766.039062 L 312.472656 763.945312 L 316.136719 763.945312 L 316.136719 766.039062 Z M 320.632812 769.148438 C 319.910156 769.738281 319.257812 770.210938 318.675781 770.574219 L 315.914062 770.574219 L 315.914062 768.238281 L 319.070312 768.238281 L 319.070312 767.152344 L 319.800781 768.101562 C 320.195312 767.832031 320.609375 767.503906 321.042969 767.125 C 321.476562 766.746094 321.851562 766.363281 322.167969 765.984375 L 322.167969 767.667969 C 321.871094 768.066406 321.355469 768.5625 320.632812 769.148438 Z M 321.128906 760.984375 C 321.957031 760.082031 322.722656 759.097656 323.4375 758.039062 C 324.152344 756.980469 324.660156 756.003906 324.960938 755.121094 C 325.296875 756.003906 325.859375 756.984375 326.636719 758.054688 C 327.414062 759.121094 328.238281 760.097656 329.101562 760.984375 L 325.609375 760.984375 L 325.609375 762.996094 L 327.722656 762.996094 C 327.476562 763.433594 327.046875 763.925781 326.425781 764.476562 C 325.804688 765.03125 325.195312 765.503906 324.59375 765.902344 L 324.59375 760.984375 Z M 326.339844 768.945312 C 325.742188 769.453125 325.15625 769.894531 324.59375 770.277344 C 324.59375 770.277344 324.59375 769.765625 324.59375 768.742188 C 324.59375 767.71875 324.59375 767.214844 324.59375 767.234375 L 325.269531 768.101562 C 325.664062 767.832031 326.078125 767.503906 326.507812 767.125 C 326.941406 766.746094 327.316406 766.363281 327.636719 765.984375 L 327.636719 767.667969 C 327.375 768.011719 326.941406 768.4375 326.339844 768.945312 "/>
















































</g>
</svg>
